Coordinates
version=1
nRows=17
nColumns=63
inDegrees=yes

Units are S.I. units (second, meters, Newtons, ...)
If the header above contains a line with 'inDegrees', this indicates whether rotational values are in degrees (yes) or radians (no).

endheader
time	pelvis_tilt	pelvis_list	pelvis_rotation	pelvis_tx	pelvis_ty	pelvis_tz	hip_flexion_r	hip_adduction_r	hip_rotation_r	knee_angle_r	knee_angle_r_beta	ankle_angle_r	subtalar_angle_r	mtp_angle_r	hip_flexion_l	hip_adduction_l	hip_rotation_l	knee_angle_l	knee_angle_l_beta	ankle_angle_l	subtalar_angle_l	mtp_angle_l	L5_S1_Flex_Ext	L5_S1_Lat_Bending	L5_S1_axial_rotation	L4_L5_Flex_Ext	L4_L5_Lat_Bending	L4_L5_axial_rotation	L3_L4_Flex_Ext	L3_L4_Lat_Bending	L3_L4_axial_rotation	L2_L3_Flex_Ext	L2_L3_Lat_Bending	L2_L3_axial_rotation	L1_L2_Flex_Ext	L1_L2_Lat_Bending	L1_L2_axial_rotation	L1_T12_Flex_Ext	L1_T12_Lat_Bending	L1_T12_axial_rotation	Abs_r3	Abs_r2	Abs_r1	Abs_t1	Abs_t2	neck_flexion	neck_bending	neck_rotation	arm_flex_r	arm_add_r	arm_rot_r	elbow_flex_r	pro_sup_r	wrist_flex_r	wrist_dev_r	arm_flex_l	arm_add_l	arm_rot_l	elbow_flex_l	pro_sup_l	wrist_flex_l	wrist_dev_l
2.947368	-3.014148	-0.057091	80.361420	0.181351	0.887431	0.653938	18.635423	-2.087307	2.071431	20.542899	0.358541	27.561474	-3.679171	0.000000	18.616604	0.074604	-11.456774	18.033421	0.314743	31.659510	3.362963	0.000000	-0.326275	0.023292	-0.090192	-0.605925	0.030979	-0.095829	-0.536037	0.056633	-0.095829	-0.372899	0.056633	-0.078918	-0.302979	0.047498	-0.073281	-0.186433	0.036080	-0.067644	-2.330547	0.263488	-0.501622	0.000000	0.000000	-23.525920	4.284485	-16.042149	-22.997041	-14.305663	4.490920	126.305267	82.172614	-6.032175	-12.557539	9.812497	-21.359357	29.971309	114.659167	56.508249	15.190935	27.450337
2.964912	-2.948027	-0.057507	80.302508	0.180121	0.886994	0.654884	18.967736	-2.020267	2.393325	21.078330	0.367886	27.475303	-4.316605	0.000000	18.646140	0.059048	-11.782333	17.877590	0.312023	31.778044	3.650497	0.000000	-0.339452	0.006590	-0.029742	-0.630396	0.008765	-0.031601	-0.557685	0.016023	-0.031601	-0.387959	0.016023	-0.026024	-0.315215	0.013439	-0.024165	-0.193963	0.010208	-0.022307	-2.424669	0.074548	-0.165416	0.000000	0.000000	-23.635176	3.830487	-15.598106	-23.334879	-14.132269	5.403280	125.287804	80.693704	-5.317660	-14.864270	10.001652	-21.166767	30.231086	114.616572	57.412660	16.480803	27.230941
2.982456	-2.928146	-0.052393	80.221263	0.179151	0.886662	0.655684	19.286300	-1.982442	2.742090	21.603225	0.377047	27.365590	-4.955781	0.000000	18.627209	0.076265	-12.143533	17.650277	0.308055	31.854761	3.976130	0.000000	-0.348950	-0.017792	0.013032	-0.648035	-0.023663	0.013846	-0.573290	-0.043258	0.013846	-0.398815	-0.043258	0.011403	-0.324035	-0.036280	0.010588	-0.199390	-0.027559	0.009774	-2.492516	-0.201261	0.072478	0.000000	0.000000	-23.626219	3.569087	-15.010931	-23.211452	-13.917912	6.326041	124.096806	79.642189	-4.686632	-16.602522	9.950247	-20.945815	30.113359	114.530234	59.030237	18.593105	27.060598
3.000000	-2.943372	-0.031422	80.162136	0.178382	0.886457	0.656290	19.559358	-1.977397	3.075241	22.101418	0.385743	27.222518	-5.600114	0.000000	18.550098	0.126105	-12.519986	17.361957	0.303023	31.895745	4.372854	0.000000	-0.354929	-0.047345	0.024709	-0.659139	-0.062970	0.026254	-0.583113	-0.115116	0.026254	-0.405648	-0.115116	0.021621	-0.329587	-0.096547	0.020076	-0.202806	-0.073338	0.018532	-2.535222	-0.535582	0.137426	0.000000	0.000000	-23.543283	3.510573	-14.189958	-22.640692	-13.681599	7.299294	122.789536	78.859004	-4.145323	-17.660510	9.597164	-20.724073	29.609409	114.420897	61.397578	21.368815	26.804338
3.017544	-2.982451	0.008726	80.138496	0.177767	0.886375	0.656699	19.775923	-2.002446	3.368621	22.565684	0.393845	27.054033	-6.219394	0.000000	18.418588	0.201887	-12.881718	17.033562	0.297292	31.900799	4.823915	0.000000	-0.357179	-0.080283	0.009529	-0.663317	-0.106777	0.010125	-0.586809	-0.195201	0.010125	-0.408220	-0.195201	0.008338	-0.331676	-0.163714	0.007743	-0.204092	-0.124359	0.007147	-2.551294	-0.908181	0.053000	0.000000	0.000000	-23.425691	3.693208	-13.132134	-21.730735	-13.450834	8.300873	121.467715	78.168071	-3.651321	-17.953377	8.954927	-20.517053	28.796270	114.305675	64.455616	24.646194	26.469334
3.035088	-3.036392	0.071919	80.175556	0.177233	0.886420	0.656882	19.919711	-2.056055	3.621137	22.983072	0.401130	26.868660	-6.821165	0.000000	18.220006	0.307543	-13.192697	16.651362	0.290621	31.863529	5.333449	0.000000	-0.355385	-0.114757	-0.039488	-0.659985	-0.152626	-0.041956	-0.583862	-0.279019	-0.041956	-0.406169	-0.279019	-0.034552	-0.330010	-0.234012	-0.032084	-0.203067	-0.177758	-0.029616	-2.538479	-1.298149	-0.219619	0.000000	0.000000	-23.340439	4.049186	-11.799041	-20.574517	-13.260712	9.371010	120.208193	77.549833	-3.177416	-17.452182	7.954218	-20.296984	27.639020	114.218670	68.179192	28.370040	25.997084
3.052632	-3.091236	0.151373	80.262735	0.176756	0.886544	0.656909	20.011959	-2.127712	3.792260	23.370101	0.407885	26.690100	-7.342443	0.000000	17.977209	0.425695	-13.453743	16.241814	0.283473	31.788338	5.866565	0.000000	-0.350727	-0.150006	-0.107843	-0.651336	-0.199508	-0.114584	-0.576210	-0.364724	-0.114584	-0.400846	-0.364724	-0.094363	-0.325685	-0.305892	-0.087623	-0.200406	-0.232359	-0.080883	-2.505210	-1.696896	-0.599793	0.000000	0.000000	-23.293456	4.550799	-10.342773	-19.338970	-13.147216	10.487458	119.080733	76.925641	-2.698513	-16.317219	6.673184	-20.109307	26.349253	114.190976	71.870635	32.012610	25.583687
3.070175	-3.128614	0.241988	80.423491	0.176233	0.886718	0.656815	20.052877	-2.206585	3.877983	23.719260	0.413979	26.543410	-7.793397	0.000000	17.717756	0.544768	-13.622538	15.845155	0.276550	31.696613	6.407409	0.000000	-0.344161	-0.183023	-0.199784	-0.639142	-0.243421	-0.212271	-0.565423	-0.445002	-0.212271	-0.393342	-0.445002	-0.174811	-0.319588	-0.373221	-0.162325	-0.196654	-0.283503	-0.149838	-2.458311	-2.070394	-1.111140	0.000000	0.000000	-23.341363	5.076593	-8.758071	-18.096864	-13.149716	11.673488	118.094470	76.182897	-2.139024	-14.606488	5.099331	-19.941590	24.933942	114.258998	75.477660	35.437674	25.137546
3.087719	-3.123434	0.339485	80.689073	0.175543	0.886919	0.656635	20.042170	-2.281970	3.838513	24.023434	0.419288	26.430974	-8.182845	0.000000	17.468482	0.653005	-13.643796	15.495691	0.270451	31.602133	6.917930	0.000000	-0.337943	-0.210983	-0.307786	-0.627594	-0.280607	-0.327023	-0.555206	-0.512983	-0.327023	-0.386235	-0.512983	-0.269313	-0.313814	-0.430236	-0.250076	-0.193100	-0.326812	-0.230840	-2.413891	-2.386678	-1.711814	0.000000	0.000000	-23.508047	5.569736	-7.176930	-16.957002	-13.262830	12.820322	117.247674	75.440335	-1.294342	-12.476649	3.333436	-19.803613	23.544028	114.402113	78.663035	38.367600	24.632069
3.105263	-3.082940	0.443673	81.021516	0.174772	0.887140	0.656469	20.001212	-2.345037	3.724604	24.299815	0.424112	26.351625	-8.526874	0.000000	17.239963	0.740694	-13.564491	15.207221	0.265416	31.506477	7.397491	0.000000	-0.334853	-0.236084	-0.429174	-0.621856	-0.313992	-0.455997	-0.550130	-0.574015	-0.455997	-0.382704	-0.574015	-0.375527	-0.310945	-0.481423	-0.348704	-0.191335	-0.365694	-0.321880	-2.391822	-2.670631	-2.386936	0.000000	0.000000	-23.814465	5.979721	-5.592161	-15.900903	-13.529038	14.075382	116.517415	74.419031	-0.488391	-10.090015	1.470046	-19.641990	22.093685	114.617880	81.585891	41.103130	24.095657
3.122807	-2.980324	0.532775	81.458534	0.173784	0.887362	0.656306	19.931322	-2.385897	3.472406	24.521311	0.427978	26.280225	-8.828712	0.000000	17.065945	0.794766	-13.327526	14.996299	0.261735	31.421913	7.820132	0.000000	-0.333897	-0.254099	-0.554150	-0.620080	-0.337951	-0.588784	-0.548559	-0.617816	-0.588784	-0.381611	-0.617816	-0.484881	-0.310057	-0.518158	-0.450247	-0.190789	-0.393599	-0.415612	-2.384992	-2.874417	-3.082016	0.000000	0.000000	-24.259698	6.286009	-4.152877	-15.033149	-13.877573	15.221757	115.897638	73.509306	0.637402	-7.602004	-0.339608	-19.458282	20.780698	114.843910	83.734553	43.224920	23.634061
3.140351	-2.825822	0.613446	82.000986	0.172573	0.887590	0.656150	19.823230	-2.426061	3.047161	24.684276	0.430822	26.221085	-9.027509	0.000000	16.942657	0.828621	-12.936971	14.863984	0.259425	31.355724	8.177373	0.000000	-0.336928	-0.266183	-0.667268	-0.625709	-0.354023	-0.708973	-0.553539	-0.647197	-0.708973	-0.385075	-0.647197	-0.583860	-0.312871	-0.542800	-0.542156	-0.192521	-0.412317	-0.500451	-2.406643	-3.011115	-3.711146	0.000000	0.000000	-24.805009	6.510818	-2.980666	-14.448783	-14.208873	16.107103	115.419463	72.927687	2.185829	-5.111552	-1.909152	-19.295265	19.806091	115.024797	84.648874	44.377192	23.322625
3.157895	-2.618276	0.676959	82.632678	0.171173	0.887830	0.655982	19.687420	-2.450261	2.481557	24.790164	0.432670	26.134843	-9.191641	0.000000	16.866261	0.837580	-12.395287	14.785694	0.258059	31.292141	8.458115	0.000000	-0.342188	-0.270784	-0.774355	-0.635477	-0.360143	-0.822752	-0.562180	-0.658385	-0.822752	-0.391086	-0.658385	-0.677560	-0.317755	-0.552184	-0.629163	-0.195526	-0.419445	-0.580766	-2.444212	-3.063168	-4.306727	0.000000	0.000000	-25.429166	6.623757	-1.972188	-14.078122	-14.560101	16.811510	115.051469	72.503670	4.061949	-2.612025	-3.267756	-19.120497	19.071036	115.163160	84.536245	44.612355	23.151613
3.175439	-2.390597	0.724271	83.317426	0.169680	0.888055	0.655831	19.537198	-2.478043	1.832617	24.849573	0.433707	26.037574	-9.309961	0.000000	16.841275	0.835537	-11.790968	14.772160	0.257823	31.251806	8.707647	0.000000	-0.350125	-0.272473	-0.855790	-0.650216	-0.362389	-0.909277	-0.575220	-0.662491	-0.909277	-0.400157	-0.662491	-0.748816	-0.325126	-0.555627	-0.695329	-0.200061	-0.422061	-0.641842	-2.500905	-3.082270	-4.759646	0.000000	0.000000	-26.040078	6.654963	-1.288719	-13.997030	-14.829112	17.234075	114.852866	72.113908	6.310996	-0.185489	-4.322192	-18.978127	18.668457	115.193038	83.491285	44.084599	23.049939
3.192982	-2.115741	0.747839	84.061776	0.168106	0.888241	0.655705	19.376681	-2.471481	1.109474	24.853490	0.433775	25.913411	-9.443965	0.000000	16.878798	0.792934	-11.113822	14.828636	0.258809	31.237483	8.936751	0.000000	-0.360071	-0.267793	-0.907662	-0.668688	-0.356165	-0.964391	-0.591561	-0.651113	-0.964391	-0.411525	-0.651113	-0.794205	-0.334362	-0.546084	-0.737476	-0.205745	-0.414812	-0.680747	-2.571951	-3.029333	-5.048146	0.000000	0.000000	-26.571864	6.641146	-0.932672	-14.205125	-15.027149	17.370408	114.842607	71.519679	8.825908	2.143320	-5.071591	-18.916400	18.674668	115.146116	81.741674	42.634560	22.919491
3.210526	-1.854274	0.755078	84.799121	0.166585	0.888365	0.655637	19.231374	-2.476402	0.379518	24.835406	0.433460	25.821519	-9.506131	0.000000	16.955214	0.755791	-10.430044	14.922920	0.260454	31.238504	9.117259	0.000000	-0.373141	-0.264361	-0.929461	-0.692960	-0.351600	-0.987552	-0.613033	-0.642766	-0.987552	-0.426463	-0.642766	-0.813278	-0.346499	-0.539084	-0.755187	-0.213213	-0.409495	-0.697096	-2.665308	-2.990501	-5.169382	0.000000	0.000000	-26.948462	6.535643	-0.858198	-14.622614	-15.128812	17.268014	115.010151	71.038299	11.453474	4.288109	-5.618316	-18.914966	18.895842	115.059015	79.695326	40.791900	22.784925
3.228070	-1.571189	0.740831	85.549150	0.165111	0.888385	0.655613	19.100305	-2.459668	-0.407407	24.786295	0.432602	25.792146	-9.488472	0.000000	17.084341	0.691373	-9.711094	15.068169	0.262989	31.265697	9.258269	0.000000	-0.387963	-0.258919	-0.919016	-0.720487	-0.344363	-0.976454	-0.637385	-0.629536	-0.976454	-0.443403	-0.629536	-0.804139	-0.360263	-0.527988	-0.746700	-0.221682	-0.401066	-0.689262	-2.771184	-2.928946	-5.111289	0.000000	0.000000	-27.151446	6.368243	-1.126555	-15.247837	-15.160553	16.894648	115.365226	70.655673	14.099356	6.206976	-6.004008	-19.072258	19.446093	115.001283	77.448598	38.219011	22.594153
